<svg xmlns="http://www.w3.org/2000/svg" width="305" height="187" viewBox="0 0 305 187">
  <g id="chart" transform="translate(0 -4)">
    <g id="dates">
      <text id="_Number" data-name=" Number" transform="translate(305 189)" fill="#0c0d34" font-size="10" font-family="SFProDisplay-Regular, SF Pro Display" opacity="0.3"><tspan x="-16.265" y="0">Mar</tspan></text>
      <text id="_Number-2" data-name=" Number" transform="translate(245 189)" fill="#0c0d34" font-size="10" font-family="SFProDisplay-Regular, SF Pro Display" opacity="0.3"><tspan x="0" y="0">Feb</tspan></text>
      <text id="_Number-3" data-name=" Number" transform="translate(203 189)" fill="#0c0d34" font-size="10" font-family="SFProDisplay-Regular, SF Pro Display" opacity="0.3"><tspan x="0" y="0">Jan</tspan></text>
      <text id="_Number-4" data-name=" Number" transform="translate(159 189)" fill="#0c0d34" font-size="10" font-family="SFProDisplay-Regular, SF Pro Display" opacity="0.3"><tspan x="0" y="0">Dec</tspan></text>
      <text id="_Number-5" data-name=" Number" transform="translate(115 189)" fill="#0c0d34" font-size="10" font-family="SFProDisplay-Regular, SF Pro Display" opacity="0.3"><tspan x="0" y="0">Nov</tspan></text>
      <text id="_Number-6" data-name=" Number" transform="translate(73 189)" fill="#0c0d34" font-size="10" font-family="SFProDisplay-Regular, SF Pro Display" opacity="0.3"><tspan x="0" y="0">Oct</tspan></text>
      <text id="_Number-7" data-name=" Number" transform="translate(29 189)" fill="#0c0d34" font-size="10" font-family="SFProDisplay-Regular, SF Pro Display" opacity="0.3"><tspan x="0" y="0">Sep</tspan></text>
      <text id="Text" transform="translate(0 168.5)" fill="#0c0d34" font-size="10" font-family="SFProDisplay-Regular, SF Pro Display" opacity="0.3"><tspan x="0" y="0">0</tspan></text>
      <text id="Text-2" data-name="Text" transform="translate(0 117)" fill="#0c0d34" font-size="10" font-family="SFProDisplay-Regular, SF Pro Display" opacity="0.3"><tspan x="0" y="0">100</tspan></text>
      <text id="Text-3" data-name="Text" transform="translate(0 65.5)" fill="#0c0d34" font-size="10" font-family="SFProDisplay-Regular, SF Pro Display" opacity="0.3"><tspan x="0" y="0">200</tspan></text>
      <text id="Text-4" data-name="Text" transform="translate(0 14)" fill="#0c0d34" font-size="10" font-family="SFProDisplay-Regular, SF Pro Display" opacity="0.3"><tspan x="0" y="0">300</tspan></text>
    </g>
    <g id="lines" transform="translate(29 10.5)">
      <g id="Rectangle" transform="translate(0 153.5)" fill="none" stroke="#e9ebf1" stroke-miterlimit="10" stroke-width="1" opacity="0.5">
        <rect width="276" height="1" stroke="none"/>
        <rect x="0.5" y="0.5" width="275" fill="none"/>
      </g>
      <g id="Rectangle-2" data-name="Rectangle" transform="translate(0 103)" fill="none" stroke="#e9ebf1" stroke-miterlimit="10" stroke-width="1" opacity="0.5">
        <rect width="276" height="1" stroke="none"/>
        <rect x="0.5" y="0.5" width="275" fill="none"/>
      </g>
      <g id="Rectangle-3" data-name="Rectangle" transform="translate(0 51.5)" fill="none" stroke="#e9ebf1" stroke-miterlimit="10" stroke-width="1" opacity="0.5">
        <rect width="276" height="1" stroke="none"/>
        <rect x="0.5" y="0.5" width="275" fill="none"/>
      </g>
      <g id="Rectangle-4" data-name="Rectangle" fill="none" stroke="#e9ebf1" stroke-miterlimit="10" stroke-width="1" opacity="0.5">
        <rect width="276" height="1" stroke="none"/>
        <rect x="0.5" y="0.5" width="275" fill="none"/>
      </g>
    </g>
    <g id="november" transform="translate(115 80)">
      <path id="Rectangle-5" data-name="Rectangle" d="M8,0H8a8,8,0,0,1,8,8V84a0,0,0,0,1,0,0H0a0,0,0,0,1,0,0V8A8,8,0,0,1,8,0Z" fill="#2cb9b0" opacity="0.1"/>
      <rect id="Rectangle-6" data-name="Rectangle" width="16" height="24" rx="8" fill="#2cb9b0"/>
    </g>
    <g id="december" transform="translate(159 20)">
      <path id="Rectangle_Copy" data-name="Rectangle Copy" d="M8,0H8a8,8,0,0,1,8,8V144a0,0,0,0,1,0,0H0a0,0,0,0,1,0,0V8A8,8,0,0,1,8,0Z" fill="#fe5e33" opacity="0.1"/>
      <rect id="Rectangle_Copy-2" data-name="Rectangle Copy" width="16" height="24" rx="8" fill="#fe5e33"/>
    </g>
    <g id="february" transform="translate(245 64)">
      <path id="Rectangle_Copy_2" data-name="Rectangle Copy 2" d="M8,0H8a8,8,0,0,1,8,8v92a0,0,0,0,1,0,0H0a0,0,0,0,1,0,0V8A8,8,0,0,1,8,0Z" fill="#ffc641" opacity="0.1"/>
      <rect id="Rectangle_Copy_2-2" data-name="Rectangle Copy 2" width="16" height="24" rx="8" fill="#ffc641"/>
    </g>
  </g>
</svg>
