<svg id="pattern" xmlns="http://www.w3.org/2000/svg" xmlns:xlink="http://www.w3.org/1999/xlink" width="375" height="157" viewBox="0 0 375 157">
  <defs>
    <clipPath id="clip-path">
      <path id="bg" d="M0,0H375V-148a60,60,0,0,1-60,60H60A60,60,0,0,0,0-28Z" transform="translate(0 157)" fill="#0c0d34"/>
    </clipPath>
  </defs>
  <path id="bg-2" data-name="bg" d="M0,0H375V-148a60,60,0,0,1-60,60H60A60,60,0,0,0,0-28Z" transform="translate(0 157)" fill="#0c0d34"/>
  <g id="pattern-2" data-name="pattern" clip-path="url(#clip-path)">
    <rect id="Shape" width="63" height="63" transform="translate(375 93.722) rotate(90)" fill="#111747"/>
    <path id="Shape-2" data-name="Shape" d="M31.5,0H63a0,0,0,0,1,0,0V63a0,0,0,0,1,0,0H31.5A31.5,31.5,0,0,1,0,31.5v0A31.5,31.5,0,0,1,31.5,0Z" transform="translate(250 -31.278) rotate(90)" fill="#111747"/>
    <rect id="Shape-3" data-name="Shape" width="63" height="63" transform="translate(250 93.722) rotate(90)" fill="#111747"/>
    <rect id="Shape-4" data-name="Shape" width="63" height="63" transform="translate(188 93.722) rotate(90)" fill="#ffc641"/>
    <rect id="Shape-5" data-name="Shape" width="63" height="63" transform="translate(63 93.722) rotate(90)" fill="#ffc641"/>
    <rect id="Shape-6" data-name="Shape" width="63" height="63" transform="translate(250 31.722) rotate(90)" fill="#111747"/>
    <rect id="Shape-7" data-name="Shape" width="63" height="63" transform="translate(126 93.722) rotate(90)" fill="#fff"/>
    <rect id="Shape-8" data-name="Shape" width="63" height="63" transform="translate(312 93.722) rotate(90)" fill="#2cb9b0"/>
    <path id="Shape-9" data-name="Shape" d="M31.5,0h0A31.5,31.5,0,0,1,63,31.5V63a0,0,0,0,1,0,0H0a0,0,0,0,1,0,0V31.5A31.5,31.5,0,0,1,31.5,0Z" transform="translate(375 93.722) rotate(90)" fill="#2cb9b0"/>
    <path id="Shape-10" data-name="Shape" d="M31.5,0h0A31.5,31.5,0,0,1,63,31.5V63a0,0,0,0,1,0,0H.189A.189.189,0,0,1,0,62.811V31.5A31.5,31.5,0,0,1,31.5,0Z" transform="translate(312 31.722) rotate(90)" fill="#ff87a2"/>
    <path id="Shape-11" data-name="Shape" d="M31.5,0h0A31.5,31.5,0,0,1,63,31.5V63a0,0,0,0,1,0,0H0a0,0,0,0,1,0,0V31.5A31.5,31.5,0,0,1,31.5,0Z" transform="translate(63 31.722) rotate(90)" fill="#ff87a2"/>
    <path id="Shape-12" data-name="Shape" d="M0,0H63c0,17.121-14.1,31-31.5,31S0,17.121,0,0Z" transform="translate(250 93.722) rotate(90)" fill="#06818e"/>
    <path id="Shape-13" data-name="Shape" d="M1.7,0H63a0,0,0,0,1,0,0V31.5A31.5,31.5,0,0,1,31.5,63h0A31.5,31.5,0,0,1,0,31.5V1.7A1.7,1.7,0,0,1,1.7,0Z" transform="translate(188 -31.278) rotate(90)" fill="#2cb9b0"/>
    <path id="Shape-14" data-name="Shape" d="M63,31H0C0,13.879,14.1,0,31.5,0S63,13.879,63,31Z" transform="translate(156 93.722) rotate(90)" fill="#06818e"/>
    <path id="Shape-15" data-name="Shape" d="M63,31H0C0,13.879,14.1,0,31.5,0S63,13.879,63,31Z" transform="translate(219 31.722) rotate(90)" fill="#fe5e33"/>
    <rect id="Shape-16" data-name="Shape" width="63" height="63" transform="translate(188 31.722) rotate(90)" fill="#ffc641"/>
    <path id="Shape-17" data-name="Shape" d="M0,0H63a0,0,0,0,1,0,0V31.5A31.5,31.5,0,0,1,31.5,63h0A31.5,31.5,0,0,1,0,31.5V0A0,0,0,0,1,0,0Z" transform="translate(126 31.722) rotate(90)" fill="#ffc641"/>
    <path id="Shape-18" data-name="Shape" d="M63,63h0A31.474,31.474,0,0,1,31.5,31.5a31.3,31.3,0,0,1-2.475,12.261,31.4,31.4,0,0,1-6.751,10.013,31.4,31.4,0,0,1-10.013,6.751A31.3,31.3,0,0,1,0,63H0A31.474,31.474,0,0,1,31.5,31.5h0a31.3,31.3,0,0,1-12.26-2.475A31.4,31.4,0,0,1,9.226,22.274,31.4,31.4,0,0,1,2.475,12.261,31.3,31.3,0,0,1,0,0,31.3,31.3,0,0,1,12.261,2.475,31.4,31.4,0,0,1,22.274,9.226a31.4,31.4,0,0,1,6.751,10.013A31.3,31.3,0,0,1,31.5,31.5,31.474,31.474,0,0,1,63,0a31.3,31.3,0,0,1-2.475,12.261,31.4,31.4,0,0,1-6.751,10.013,31.4,31.4,0,0,1-10.013,6.751A31.3,31.3,0,0,1,31.5,31.5h0A31.474,31.474,0,0,1,63,63Z" transform="translate(406 93.722) rotate(90)" fill="#06818e"/>
    <rect id="Shape-19" data-name="Shape" width="63" height="63" transform="translate(63 -94.278) rotate(90)" fill="#111747"/>
    <rect id="Shape-20" data-name="Shape" width="63" height="63" transform="translate(312 -94.278) rotate(90)" fill="#2cb9b0"/>
    <rect id="Shape-21" data-name="Shape" width="63" height="63" transform="translate(188 -94.278) rotate(90)" fill="#fe5e33"/>
    <rect id="Shape-22" data-name="Shape" width="63" height="63" rx="31.5" transform="translate(250 -94.278) rotate(90)" fill="#ff87a2"/>
    <path id="Shape-23" data-name="Shape" d="M0,0H63c0,17.121-14.1,31-31.5,31S0,17.121,0,0Z" transform="translate(250 -31.278) rotate(90)" fill="#ff87a2"/>
    <rect id="Shape-24" data-name="Shape" width="63" height="63" transform="translate(312 -31.278) rotate(90)" fill="#ff87a2"/>
    <path id="Shape-25" data-name="Shape" d="M63,31H0C0,13.879,14.1,0,31.5,0S63,13.879,63,31Z" transform="translate(343 -31.278) rotate(90)" fill="#ff87a2"/>
    <path id="Shape-26" data-name="Shape" d="M31,0A31,31,0,0,1,0,31,31,31,0,0,1,31,0Z" transform="translate(375 0.722) rotate(90)" fill="#06818e"/>
    <path id="Shape-27" data-name="Shape" d="M0,31A31,31,0,0,1,31,0,31,31,0,0,1,0,31Z" transform="translate(343 -31.278) rotate(90)" fill="#111747"/>
    <path id="Shape-28" data-name="Shape" d="M15.5,55A31.878,31.878,0,0,1,0,27.5,31.878,31.878,0,0,1,15.5,0,31.878,31.878,0,0,1,31,27.5,31.878,31.878,0,0,1,15.5,55Z" transform="translate(308 0.722) rotate(90)" fill="#fff"/>
    <path id="Shape-29" data-name="Shape" d="M31,0A31,31,0,0,1,0,31,31,31,0,0,1,31,0Z" transform="translate(312 124.722) rotate(90)" fill="#111747"/>
    <path id="Shape-30" data-name="Shape" d="M31,0A31,31,0,0,1,0,31,31,31,0,0,1,31,0Z" transform="translate(312 -62.278) rotate(90)" fill="#ffc641"/>
    <path id="Shape-31" data-name="Shape" d="M0,63V0C17.121,0,31,14.1,31,31.5S17.121,63,0,63Z" transform="translate(188 -31.278) rotate(90)" fill="#fe5e33"/>
    <path id="Shape-32" data-name="Shape" d="M0,31A31,31,0,0,1,31,0,31,31,0,0,1,0,31Z" transform="translate(156 -94.278) rotate(90)" fill="#2cb9b0"/>
    <rect id="Shape-33" data-name="Shape" width="63" height="63" rx="31.5" transform="translate(375 -94.278) rotate(90)" fill="#06818e"/>
    <path id="Shape-34" data-name="Shape" d="M0,31A31,31,0,0,1,31,0,31,31,0,0,1,0,31Z" transform="translate(282 -94.278) rotate(90)" fill="#06818e"/>
    <path id="Shape-35" data-name="Shape" d="M0,31A31,31,0,0,1,31,0,31,31,0,0,1,0,31Z" transform="translate(219 93.722) rotate(90)" fill="#fff"/>
    <path id="Shape-36" data-name="Shape" d="M47.25,55h0a31.86,31.86,0,0,1,0-55,31.86,31.86,0,0,1,0,55Zm-31.5,0h0a31.86,31.86,0,0,1,0-55A31.8,31.8,0,0,1,27.156,11.4,31.91,31.91,0,0,1,31.5,27.5a31.908,31.908,0,0,1-4.344,16.1A31.8,31.8,0,0,1,15.75,55Z" transform="translate(122 -94.278) rotate(90)" fill="#2cb9b0"/>
    <rect id="Shape-37" data-name="Shape" width="63" height="63" rx="31.5" transform="translate(126 31.722) rotate(90)" fill="#2cb9b0"/>
    <rect id="Shape-38" data-name="Shape" width="63" height="63" rx="31.5" transform="translate(156 -0.278) rotate(90)" fill="#fff"/>
    <rect id="Shape-39" data-name="Shape" width="63" height="63" rx="31.5" transform="translate(188 31.722) rotate(90)" fill="#fe5e33"/>
    <path id="Shape-40" data-name="Shape" d="M15.5,0A15.5,15.5,0,1,1,0,15.5,15.5,15.5,0,0,1,15.5,0Z" transform="translate(234 47.722) rotate(90)" fill="#ffc641"/>
    <path id="Shape-41" data-name="Shape" d="M15.5,0A15.5,15.5,0,1,1,0,15.5,15.5,15.5,0,0,1,15.5,0Z" transform="translate(234 -78.278) rotate(90)" fill="#111747"/>
    <path id="Shape-42" data-name="Shape" d="M15.5,0A15.5,15.5,0,1,1,0,15.5,15.5,15.5,0,0,1,15.5,0Z" transform="translate(110 109.722) rotate(90)" fill="#fe5e33"/>
    <path id="Shape-43" data-name="Shape" d="M15.5,0A15.5,15.5,0,1,1,0,15.5,15.5,15.5,0,0,1,15.5,0Z" transform="translate(110 -15.278) rotate(90)" fill="#2cb9b0"/>
    <path id="Shape-44" data-name="Shape" d="M15.5,0A15.5,15.5,0,1,1,0,15.5,15.5,15.5,0,0,1,15.5,0Z" transform="translate(110 -78.278) rotate(90)" fill="#fe5e33"/>
    <path id="Shape-45" data-name="Shape" d="M15.5,0A15.5,15.5,0,1,1,0,15.5,15.5,15.5,0,0,1,15.5,0Z" transform="translate(172 -15.278) rotate(90)" fill="#111747"/>
    <path id="Shape-46" data-name="Shape" d="M15.5,0A15.5,15.5,0,1,1,0,15.5,15.5,15.5,0,0,1,15.5,0Z" transform="translate(266 109.722) rotate(90)" fill="#fe5e33"/>
    <path id="Shape-47" data-name="Shape" d="M0,0H63a0,0,0,0,1,0,0V31.5A31.5,31.5,0,0,1,31.5,63h0A31.5,31.5,0,0,1,0,31.5V0A0,0,0,0,1,0,0Z" transform="translate(375 31.722) rotate(90)" fill="#06818e"/>
    <path id="Shape-48" data-name="Shape" d="M0,31A31,31,0,0,1,31,0,31,31,0,0,1,0,31Z" transform="translate(375 61.722) rotate(90)" fill="#fe5e33"/>
    <rect id="Shape-49" data-name="Shape" width="63" height="63" transform="translate(63 -31.278) rotate(90)" fill="#111747"/>
    <path id="Shape-50" data-name="Shape" d="M63,31H0C0,13.879,14.1,0,31.5,0S63,13.879,63,31Z" transform="translate(94 -31.278) rotate(90)" fill="#fe5e33"/>
    <path id="Shape-51" data-name="Shape" d="M0,31A31,31,0,0,1,31,0,31,31,0,0,1,0,31Z" transform="translate(63 -62.278) rotate(90)" fill="#2cb9b0"/>
    <path id="Shape-52" data-name="Shape" d="M63,63h0A31.474,31.474,0,0,1,31.5,31.5a31.3,31.3,0,0,1-2.475,12.261,31.4,31.4,0,0,1-6.751,10.013,31.4,31.4,0,0,1-10.013,6.751A31.3,31.3,0,0,1,0,63H0A31.474,31.474,0,0,1,31.5,31.5h0a31.3,31.3,0,0,1-12.26-2.475A31.4,31.4,0,0,1,9.226,22.274,31.4,31.4,0,0,1,2.475,12.261,31.3,31.3,0,0,1,0,0,31.3,31.3,0,0,1,12.261,2.475,31.4,31.4,0,0,1,22.274,9.226a31.4,31.4,0,0,1,6.751,10.013A31.3,31.3,0,0,1,31.5,31.5,31.474,31.474,0,0,1,63,0a31.3,31.3,0,0,1-2.475,12.261,31.4,31.4,0,0,1-6.751,10.013,31.4,31.4,0,0,1-10.013,6.751A31.3,31.3,0,0,1,31.5,31.5h0A31.474,31.474,0,0,1,63,63Z" transform="translate(406 -94.278) rotate(90)" fill="#111747"/>
    <path id="Shape-53" data-name="Shape" d="M63,63h0A31.474,31.474,0,0,1,31.5,31.5a31.3,31.3,0,0,1-2.475,12.261,31.4,31.4,0,0,1-6.751,10.013,31.4,31.4,0,0,1-10.013,6.751A31.3,31.3,0,0,1,0,63H0A31.474,31.474,0,0,1,31.5,31.5h0a31.3,31.3,0,0,1-12.26-2.475A31.4,31.4,0,0,1,9.226,22.274,31.4,31.4,0,0,1,2.475,12.261,31.3,31.3,0,0,1,0,0,31.3,31.3,0,0,1,12.261,2.475,31.4,31.4,0,0,1,22.274,9.226a31.4,31.4,0,0,1,6.751,10.013A31.3,31.3,0,0,1,31.5,31.5,31.474,31.474,0,0,1,63,0a31.3,31.3,0,0,1-2.475,12.261,31.4,31.4,0,0,1-6.751,10.013,31.4,31.4,0,0,1-10.013,6.751A31.3,31.3,0,0,1,31.5,31.5h0A31.474,31.474,0,0,1,63,63Z" transform="translate(156 31.722) rotate(90)" fill="#2cb9b0"/>
  </g>
</svg>
